Coordinates
nRows=246
nColumns=2
inDegrees=yes
endheader
time	ankle_angle_r	
3.22681	  9.384155	
3.26008	  9.388544	
3.29335	  9.344666	
3.32661	  9.394832	
3.35988	  9.358316	
3.39315	  9.358414	
3.42641	  9.399414	
3.45968	  9.363576	
3.49294	  9.363831	
3.52621	  9.353638	
3.55948	  9.348378	
3.59274	  9.368896	
3.62601	  9.395061	
3.65927	  9.395253	
3.69254	  9.414673	
3.72581	  9.429932	
3.75907	  9.424092	
3.79234	  9.420609	
3.8256	  9.423899	
3.85887	  9.405543	
3.89214	  9.411254	
3.9254	  9.543066	
3.95867	  9.412252	
3.99194	  9.429932	
4.0252	  9.451803	
4.05847	  9.384155	
4.09173	  9.429932	
4.125	  9.428478	
4.15827	  9.452189	
4.19153	  9.353638	
4.2248	  9.368896	
4.25806	  9.354318	
4.29133	  9.323120	
4.3246	  9.369189	
4.35786	  9.323120	
4.39113	  9.353731	
4.4244	  9.361411	
4.45766	  9.338379	
4.49093	  9.315827	
4.52419	  9.361701	
4.55746	  9.338379	
4.59073	  9.331376	
4.62399	  9.368896	
4.65726	  9.331570	
4.69052	  9.338379	
4.72379	  9.344995	
4.75706	  9.338379	
4.79032	  9.323120	
4.82359	  9.384155	
4.85685	  9.359866	
4.89012	  9.313993	
4.92339	  9.374932	
4.95665	  9.341760	
4.98992	  9.340647	
5.02319	  9.365129	
5.05645	  9.378507	
5.08972	  9.359190	
5.12298	  9.395066	
5.15625	  9.343738	
5.18952	  9.394679	
5.22278	  9.460449	
5.25605	  9.399414	
5.28931	  9.394099	
5.32258	  9.424423	
5.35585	  9.403270	
5.38911	  9.465131	
5.42238	  9.388741	
5.45565	  9.490967	
5.48891	  9.445190	
5.52218	  9.552002	
5.55544	  9.464647	
5.58871	  9.453394	
5.62198	  9.441185	
5.65524	  9.494875	
5.68851	  9.536743	
5.72177	  9.468278	
5.75504	  9.403032	
5.78831	  9.387677	
5.82157	  9.384155	
5.85484	  9.345036	
5.8881	  9.384155	
5.92137	  9.442056	
5.95464	  9.356676	
5.9879	  9.411732	
6.02117	  9.389845	
6.05444	  9.346623	
6.0877	  9.389459	
6.12097	  9.442636	
6.15423	  9.394498	
6.1875	  9.384155	
6.22077	  9.427667	
6.25403	  9.381988	
6.2873	  9.486824	
6.32056	  9.475708	
6.35383	  9.458571	
6.3871	  9.414673	
6.42036	  9.502856	
6.45363	  9.460449	
6.4869	  9.490967	
6.52016	  9.461843	
6.55343	  9.504928	
6.58669	  9.460449	
6.61996	  9.477917	
6.65323	  9.461457	
6.68649	  9.476619	
6.71976	  9.446005	
6.75302	  9.400132	
6.78629	  9.490346	
6.81956	  9.520435	
6.85282	  9.415528	
6.88609	  9.429932	
6.91935	  9.429697	
6.95262	  9.399551	
6.98589	  9.429973	
7.01915	  9.430043	
7.05242	  9.399414	
7.08569	  9.444693	
7.11895	  9.461141	
7.15222	  9.383270	
7.18548	  9.400493	
7.21875	  9.415309	
7.25202	  9.353638	
7.28528	  9.370555	
7.31855	  9.402191	
7.35181	  9.400436	
7.38508	  9.384155	
7.41835	  9.372544	
7.45161	  9.323120	
7.48488	  9.368896	
7.51815	  9.327638	
7.55141	  9.367294	
7.58468	  9.357037	
7.61794	  9.336583	
7.65121	  9.353638	
7.68448	  9.370886	
7.71774	  9.338379	
7.75101	  9.323120	
7.78427	  9.366617	
7.81754	  9.297355	
7.85081	  9.340852	
7.88407	  9.368896	
7.91734	  9.313193	
7.9506	  9.341142	
7.98387	  9.366037	
8.01714	  9.313774	
8.0504	  9.365844	
8.08367	  9.426782	
8.11694	  9.347145	
8.1502	  9.372239	
8.18347	  9.453569	
8.21673	  9.353638	
8.25	  9.411039	
8.28327	  9.353638	
8.31653	  9.441364	
8.3498	  9.487043	
8.38306	  9.445190	
8.41633	  9.436957	
8.4496	  9.399414	
8.48286	  9.418983	
8.51613	  9.373303	
8.5494	  9.451443	
8.58266	  9.404014	
8.61593	  9.451056	
8.64919	  9.445190	
8.68246	  9.475708	
8.71573	  9.379169	
8.74899	  9.373980	
8.78226	  9.435112	
8.81552	  9.445190	
8.84879	  9.444329	
8.88206	  9.450661	
8.91532	  9.418798	
8.94859	  9.353638	
8.98185	  9.481468	
9.01512	  9.466306	
9.04839	  9.454495	
9.08165	  9.420723	
9.11492	  9.442225	
9.14819	  9.460449	
9.18145	  9.471946	
9.21472	  9.408236	
9.24798	  9.408139	
9.28125	  9.416671	
9.31452	  9.399414	
9.34778	  9.406238	
9.38105	  9.452111	
9.41431	  9.445190	
9.44758	  9.439108	
9.48085	  9.475708	
9.51411	  9.415318	
9.54738	  9.422979	
9.58065	  9.452691	
9.61391	  9.437593	
9.64718	  9.483402	
9.68044	  9.429932	
9.71371	  9.392042	
9.74698	  9.476417	
9.78024	  9.407495	
9.81351	  9.483886	
9.84677	  9.482693	
9.88004	  9.445190	
9.91331	  9.467240	
9.94657	  9.558697	
9.97984	  9.549939	
10.0131	  9.506226	
10.0464	  9.438786	
10.0796	  9.475708	
10.1129	  9.414673	
10.1462	  9.466564	
10.1794	  9.454432	
10.2127	  9.427426	
10.246	  9.485142	
10.2792	  9.448994	
10.3125	  9.389787	
10.3458	  9.479897	
10.379	  9.460449	
10.4123	  9.500884	
10.4456	  9.511470	
10.4788	  9.587667	
10.5121	  9.552002	
10.5454	  9.567261	
10.5786	  9.592235	
10.6119	  9.541504	
10.6452	  9.526149	
10.6784	  9.562693	
10.7117	  9.445190	
10.745	  9.475708	
10.7782	  9.490967	
10.8115	  9.521484	
10.8448	  9.456365	
10.878	  9.395427	
10.9113	  9.346161	
10.9446	  9.418467	
10.9778	  9.414673	
11.0111	  9.384155	
11.0444	  9.414673	
11.0776	  9.368896	
11.1109	  9.380844	
11.1442	  9.360065	
11.1774	  9.393179	
11.2107	  9.338379	
11.244	  9.368896	
11.2772	  9.363242	
11.3105	  9.338379	
11.3437	  9.381521	
11.377	  9.356175	
